# xmcd
#
# Track frame offsets:
#	150
#	16200
#	37830
#	56037
#	70275
#	84187
#	99000
#	114437
#	132612
#	151445
#	170520
#	183962
#	198600
#	213225
#	231095
#	244762
#	259500
#	277200
#	293120
#
# Disc length: 4112 seconds
#
# Revision: 1
# Processed by: cddbd v1.4b42PL1 Copyright (c) Steve Scherf et al.
# Submitted via: audiograbber 1.80
#
DISCID=08100e13
DTITLE=Mungo Jerry - Mungo's Masters
DYEAR=1900
DGENRE=
TTITLE0=In tthe Summertime
TTITLE1=Nighty Man
TTITLE2=Say Goodnight
TTITLE3=Lady Rose
TTITLE4=Johnny B.Badde
TTITLE5=On A Sunday
TTITLE6=Open Up
TTITLE7=Leave That Whisky Alone
TTITLE8=Baby Jump
TTITLE9=Maggie
TTITLE10=Somebody Stole My Wife
TTITLE11=In The Army to Fight the War
TTITLE12=She Rowed
TTITLE13=Have a Whiff of Me
TTITLE14=My Girl and Me
TTITLE15=Northcote Arms
TTITLE16=See Me
TTITLE17=Hello Nadine
TTITLE18=It's A Secret
EXTD=
EXTT0=
EXTT1=
EXTT2=
EXTT3=
EXTT4=
EXTT5=
EXTT6=
EXTT7=
EXTT8=
EXTT9=
EXTT10=
EXTT11=
EXTT12=
EXTT13=
EXTT14=
EXTT15=
EXTT16=
EXTT17=
EXTT18=
PLAYORDER=
